<?xml version="1.0" encoding="utf-8"?>
<!-- Generator: Adobe Illustrator 16.0.0, SVG Export Plug-In . SVG Version: 6.00 Build 0)  -->
<!DOCTYPE svg PUBLIC "-//W3C//DTD SVG 1.1//EN" "http://www.w3.org/Graphics/SVG/1.1/DTD/svg11.dtd">
<svg version="1.1" id="Layer_1" xmlns="http://www.w3.org/2000/svg" xmlns:xlink="http://www.w3.org/1999/xlink" x="0px" y="0px"
	 width="1967.922px" height="2652.211px" viewBox="0 0 1967.922 2652.211" enable-background="new 0 0 1967.922 2652.211"
	 xml:space="preserve">
<g>
	<path fill="none" stroke="#000000" stroke-width="3" stroke-miterlimit="10" d="M968.977,0.806
		c-18.587,29.163-50.632,8.738-69.219,37.901s13.458,49.586-5.129,78.749c-18.588,29.164-50.633,8.74-69.221,37.904
		c-18.587,29.163,13.458,49.587-5.13,78.75c-18.588,29.164-50.633,8.74-69.221,37.903c-18.587,29.163,13.458,49.587-5.129,78.75
		s-50.632,8.739-69.22,37.902c-18.587,29.164,13.457,49.587-5.13,78.751c-18.588,29.164-50.633,8.74-69.221,37.903
		c-18.587,29.163,13.457,49.587-5.13,78.75c-18.588,29.165-50.633,8.74-69.221,37.905c-18.586,29.161,13.458,49.585-5.128,78.747
		c-18.587,29.163-50.632,8.739-69.22,37.902c-18.586,29.162,13.458,49.586-5.128,78.748c-18.587,29.163-50.632,8.739-69.219,37.901
		c-18.587,29.163,13.458,49.587-5.13,78.75c-18.588,29.165-50.633,8.741-69.222,37.905c-18.589,29.165,13.456,49.589-5.133,78.754
		c-18.588,29.164-50.633,8.74-69.221,37.904c-18.589,29.166,13.456,49.589-5.133,78.755c-18.589,29.165-50.634,8.741-69.223,37.906
		c-18.588,29.164,13.457,49.588-5.131,78.752c-18.589,29.166-50.634,8.741-69.223,37.907c-18.589,29.166,13.456,49.59-5.134,78.756
		c-18.59,29.168-50.635,8.743-69.226,37.911c-18.59,29.167,13.455,49.592-5.136,78.759"/>
</g>
<g>
	<path fill="none" stroke="#000000" stroke-width="3" stroke-miterlimit="10" d="M1007.349,44.424
		c-18.587,29.163-50.632,8.738-69.219,37.901s13.458,49.586-5.129,78.749c-18.588,29.164-50.633,8.74-69.221,37.904
		c-18.587,29.163,13.458,49.586-5.129,78.749c-18.588,29.164-50.633,8.74-69.221,37.904c-18.587,29.163,13.458,49.587-5.13,78.75
		c-18.587,29.164-50.632,8.74-69.22,37.903c-18.587,29.164,13.457,49.587-5.131,78.751s-50.632,8.739-69.22,37.903
		c-18.587,29.164,13.457,49.587-5.13,78.751c-18.588,29.164-50.633,8.74-69.221,37.904c-18.586,29.161,13.458,49.585-5.128,78.747
		c-18.587,29.163-50.632,8.739-69.22,37.902c-18.586,29.162,13.458,49.586-5.128,78.748c-18.587,29.163-50.632,8.738-69.219,37.901
		c-18.587,29.163,13.458,49.587-5.13,78.75c-18.588,29.165-50.633,8.741-69.222,37.905c-18.589,29.165,13.456,49.589-5.133,78.754
		c-18.588,29.165-50.633,8.74-69.221,37.905c-18.589,29.165,13.456,49.589-5.133,78.754s-50.634,8.741-69.223,37.906
		c-18.588,29.164,13.457,49.588-5.131,78.752c-18.589,29.166-50.633,8.741-69.223,37.907s13.455,49.59-5.134,78.756
		c-18.59,29.168-50.635,8.743-69.225,37.911c-18.59,29.167,13.455,49.592-5.136,78.759"/>
</g>
<g>
	<path fill="none" stroke="#000000" stroke-width="3" stroke-miterlimit="10" d="M1045.721,88.042
		c-18.587,29.163-50.632,8.738-69.219,37.901s13.458,49.586-5.129,78.749c-18.588,29.164-50.633,8.74-69.221,37.904
		c-18.587,29.163,13.458,49.586-5.129,78.749c-18.588,29.164-50.633,8.74-69.221,37.904c-18.587,29.163,13.458,49.587-5.129,78.75
		c-18.588,29.164-50.632,8.739-69.22,37.903s13.457,49.587-5.131,78.751s-50.632,8.739-69.22,37.903
		c-18.587,29.164,13.457,49.587-5.13,78.751c-18.588,29.164-50.633,8.74-69.221,37.904c-18.586,29.161,13.458,49.585-5.128,78.747
		c-18.587,29.163-50.632,8.739-69.22,37.902c-18.586,29.162,13.458,49.586-5.128,78.748c-18.587,29.163-50.632,8.739-69.219,37.901
		c-18.587,29.163,13.458,49.587-5.13,78.75c-18.588,29.165-50.633,8.741-69.222,37.905c-18.589,29.165,13.456,49.589-5.133,78.754
		c-18.588,29.165-50.633,8.74-69.221,37.905c-18.589,29.165,13.456,49.589-5.133,78.754s-50.634,8.741-69.223,37.906
		c-18.588,29.164,13.457,49.588-5.131,78.752c-18.589,29.166-50.633,8.742-69.223,37.907c-18.589,29.166,13.455,49.59-5.134,78.756
		c-18.59,29.167-50.635,8.743-69.225,37.911c-18.59,29.167,13.455,49.592-5.136,78.759"/>
</g>
<g>
	<path fill="none" stroke="#000000" stroke-width="3" stroke-miterlimit="10" d="M1084.094,131.661
		c-18.587,29.163-50.632,8.738-69.219,37.901s13.457,49.586-5.13,78.749c-18.588,29.164-50.633,8.74-69.221,37.904
		c-18.587,29.163,13.458,49.586-5.129,78.749c-18.588,29.164-50.633,8.74-69.221,37.904c-18.587,29.163,13.458,49.587-5.13,78.75
		c-18.588,29.164-50.632,8.739-69.22,37.903c-18.587,29.164,13.457,49.587-5.13,78.751c-18.588,29.164-50.633,8.74-69.221,37.903
		c-18.587,29.163,13.457,49.587-5.13,78.75c-18.588,29.164-50.633,8.74-69.221,37.904c-18.586,29.161,13.458,49.585-5.127,78.747
		c-18.588,29.163-50.632,8.739-69.22,37.902c-18.586,29.162,13.458,49.586-5.128,78.748c-18.587,29.163-50.632,8.738-69.219,37.901
		c-18.587,29.163,13.458,49.587-5.13,78.75c-18.588,29.165-50.633,8.741-69.222,37.906c-18.588,29.165,13.456,49.589-5.133,78.754
		c-18.588,29.164-50.633,8.74-69.221,37.904c-18.589,29.165,13.456,49.59-5.133,78.755s-50.634,8.741-69.223,37.906
		c-18.588,29.164,13.457,49.588-5.131,78.752c-18.589,29.165-50.634,8.741-69.223,37.906c-18.589,29.166,13.456,49.591-5.134,78.757
		c-18.59,29.168-50.635,8.743-69.226,37.911c-18.59,29.167,13.455,49.592-5.136,78.759"/>
</g>
<g>
	<path fill="none" stroke="#000000" stroke-width="3" stroke-miterlimit="10" d="M1122.466,175.279
		c-18.587,29.163-50.632,8.738-69.219,37.901s13.457,49.586-5.13,78.749c-18.588,29.164-50.633,8.74-69.221,37.904
		c-18.587,29.163,13.458,49.586-5.129,78.749c-18.588,29.164-50.632,8.74-69.221,37.904c-18.587,29.163,13.458,49.587-5.13,78.75
		c-18.587,29.164-50.632,8.74-69.22,37.903c-18.587,29.164,13.457,49.587-5.131,78.751s-50.632,8.739-69.22,37.903
		c-18.587,29.164,13.457,49.587-5.13,78.751c-18.588,29.164-50.633,8.74-69.221,37.904c-18.586,29.161,13.458,49.585-5.128,78.747
		c-18.587,29.163-50.632,8.739-69.22,37.902c-18.586,29.162,13.458,49.586-5.129,78.748c-18.587,29.163-50.631,8.739-69.219,37.901
		c-18.587,29.163,13.457,49.587-5.13,78.75c-18.588,29.165-50.633,8.741-69.222,37.905c-18.588,29.165,13.457,49.589-5.132,78.754
		c-18.588,29.164-50.633,8.74-69.222,37.904c-18.589,29.165,13.456,49.59-5.133,78.755s-50.633,8.741-69.222,37.906
		c-18.588,29.164,13.457,49.588-5.131,78.752c-18.589,29.166-50.634,8.742-69.223,37.907c-18.589,29.166,13.456,49.59-5.134,78.756
		c-18.59,29.168-50.635,8.743-69.226,37.911c-18.59,29.167,13.455,49.592-5.136,78.759"/>
</g>
<g>
	<path fill="none" stroke="#000000" stroke-width="3" stroke-miterlimit="10" d="M1160.838,218.897
		c-18.587,29.163-50.632,8.738-69.219,37.901s13.457,49.586-5.13,78.749c-18.588,29.164-50.633,8.74-69.221,37.904
		c-18.587,29.163,13.458,49.587-5.129,78.75c-18.588,29.164-50.633,8.739-69.221,37.903c-18.587,29.163,13.458,49.587-5.129,78.75
		s-50.632,8.739-69.22,37.902c-18.588,29.164,13.457,49.587-5.131,78.751c-18.588,29.164-50.632,8.74-69.22,37.903
		c-18.587,29.163,13.457,49.587-5.13,78.75c-18.588,29.165-50.633,8.74-69.221,37.905c-18.586,29.161,13.458,49.585-5.128,78.747
		c-18.587,29.163-50.632,8.739-69.22,37.902c-18.586,29.162,13.458,49.586-5.128,78.748c-18.587,29.163-50.632,8.739-69.219,37.901
		c-18.587,29.163,13.458,49.587-5.13,78.75c-18.588,29.165-50.633,8.741-69.222,37.905c-18.589,29.166,13.456,49.589-5.133,78.754
		c-18.588,29.164-50.633,8.74-69.221,37.904c-18.589,29.165,13.456,49.59-5.133,78.755s-50.633,8.741-69.222,37.906
		c-18.588,29.164,13.457,49.588-5.131,78.752c-18.589,29.165-50.634,8.741-69.223,37.906c-18.589,29.166,13.456,49.591-5.134,78.757
		c-18.59,29.168-50.635,8.743-69.226,37.911c-18.59,29.167,13.455,49.592-5.136,78.759"/>
</g>
<g>
	<path fill="none" stroke="#000000" stroke-width="3" stroke-miterlimit="10" d="M1199.21,262.515
		c-18.587,29.163-50.632,8.738-69.219,37.901s13.458,49.587-5.129,78.749c-18.588,29.164-50.634,8.74-69.222,37.904
		c-18.587,29.163,13.458,49.587-5.129,78.75c-18.588,29.164-50.633,8.74-69.221,37.904c-18.587,29.163,13.457,49.587-5.13,78.75
		c-18.587,29.163-50.632,8.739-69.22,37.902c-18.588,29.164,13.457,49.588-5.131,78.751s-50.632,8.739-69.22,37.903
		c-18.587,29.164,13.457,49.587-5.13,78.751c-18.588,29.164-50.633,8.74-69.221,37.904c-18.586,29.161,13.458,49.585-5.128,78.747
		c-18.587,29.163-50.632,8.739-69.22,37.902c-18.586,29.162,13.458,49.586-5.128,78.748c-18.587,29.163-50.632,8.739-69.219,37.901
		c-18.587,29.163,13.458,49.587-5.13,78.75c-18.588,29.165-50.633,8.741-69.222,37.906c-18.588,29.165,13.456,49.589-5.133,78.754
		c-18.588,29.164-50.633,8.74-69.221,37.904c-18.589,29.165,13.456,49.59-5.133,78.755s-50.634,8.741-69.223,37.906
		c-18.588,29.164,13.457,49.588-5.131,78.752c-18.589,29.166-50.634,8.742-69.223,37.907c-18.589,29.166,13.456,49.59-5.134,78.756
		c-18.59,29.168-50.635,8.743-69.226,37.911c-18.59,29.167,13.455,49.592-5.136,78.759"/>
</g>
<g>
	<path fill="none" stroke="#000000" stroke-width="3" stroke-miterlimit="10" d="M1237.583,306.133
		c-18.587,29.163-50.632,8.738-69.219,37.901s13.457,49.586-5.13,78.749c-18.588,29.164-50.633,8.74-69.221,37.904
		c-18.587,29.163,13.457,49.586-5.13,78.749c-18.588,29.164-50.633,8.74-69.221,37.904c-18.587,29.163,13.458,49.587-5.129,78.75
		c-18.588,29.164-50.633,8.739-69.221,37.903c-18.587,29.164,13.457,49.587-5.13,78.751c-18.588,29.164-50.632,8.74-69.22,37.903
		c-18.587,29.163,13.457,49.587-5.13,78.75c-18.588,29.164-50.633,8.74-69.221,37.904c-18.586,29.161,13.458,49.585-5.128,78.747
		c-18.587,29.163-50.632,8.739-69.22,37.902c-18.587,29.162,13.458,49.586-5.129,78.748c-18.587,29.163-50.632,8.738-69.219,37.901
		c-18.587,29.163,13.458,49.587-5.13,78.75c-18.588,29.165-50.633,8.74-69.222,37.905c-18.589,29.165,13.456,49.589-5.133,78.754
		c-18.588,29.164-50.633,8.74-69.221,37.904c-18.589,29.165,13.456,49.59-5.133,78.755s-50.634,8.741-69.223,37.906
		c-18.588,29.164,13.457,49.588-5.131,78.752c-18.589,29.165-50.634,8.741-69.223,37.906c-18.589,29.166,13.456,49.591-5.134,78.757
		c-18.59,29.168-50.635,8.743-69.226,37.911c-18.59,29.167,13.455,49.592-5.136,78.759"/>
</g>
<g>
	<path fill="none" stroke="#000000" stroke-width="3" stroke-miterlimit="10" d="M1275.956,349.751
		c-18.587,29.163-50.632,8.738-69.219,37.901s13.457,49.586-5.13,78.749c-18.588,29.164-50.633,8.74-69.221,37.904
		c-18.587,29.163,13.457,49.586-5.13,78.749c-18.588,29.164-50.632,8.74-69.22,37.904c-18.587,29.163,13.457,49.587-5.13,78.75
		c-18.588,29.164-50.633,8.739-69.221,37.903c-18.587,29.164,13.457,49.587-5.13,78.751c-18.588,29.164-50.632,8.739-69.22,37.903
		c-18.587,29.164,13.457,49.587-5.13,78.751c-18.588,29.164-50.633,8.74-69.221,37.904c-18.586,29.161,13.458,49.585-5.128,78.747
		c-18.587,29.163-50.632,8.739-69.22,37.902c-18.586,29.162,13.458,49.586-5.128,78.748c-18.587,29.163-50.632,8.738-69.219,37.901
		c-18.587,29.164,13.458,49.587-5.13,78.75c-18.588,29.165-50.633,8.74-69.222,37.905s13.456,49.589-5.133,78.754
		c-18.588,29.164-50.633,8.74-69.221,37.904c-18.589,29.165,13.456,49.59-5.133,78.755s-50.634,8.741-69.223,37.906
		c-18.588,29.164,13.457,49.588-5.131,78.752c-18.589,29.165-50.634,8.741-69.223,37.906c-18.589,29.166,13.456,49.591-5.134,78.757
		c-18.59,29.168-50.635,8.743-69.226,37.911c-18.59,29.167,13.455,49.592-5.136,78.759"/>
</g>
<g>
	<path fill="none" stroke="#000000" stroke-width="3" stroke-miterlimit="10" d="M1314.328,393.37
		c-18.587,29.163-50.632,8.738-69.219,37.901s13.457,49.586-5.13,78.749c-18.588,29.164-50.633,8.74-69.221,37.904
		c-18.587,29.163,13.458,49.587-5.129,78.75c-18.588,29.164-50.633,8.74-69.221,37.904c-18.587,29.163,13.457,49.587-5.13,78.75
		c-18.588,29.164-50.632,8.739-69.22,37.903s13.457,49.587-5.131,78.751s-50.633,8.739-69.221,37.903
		c-18.587,29.164,13.457,49.587-5.13,78.751c-18.588,29.164-50.633,8.74-69.221,37.904c-18.586,29.161,13.458,49.585-5.128,78.747
		c-18.587,29.163-50.632,8.739-69.22,37.902c-18.586,29.162,13.458,49.586-5.128,78.748c-18.587,29.163-50.632,8.738-69.219,37.901
		s13.458,49.587-5.13,78.75c-18.588,29.165-50.633,8.74-69.222,37.905c-18.589,29.165,13.456,49.589-5.133,78.754
		c-18.588,29.164-50.633,8.74-69.221,37.904c-18.589,29.165,13.456,49.59-5.133,78.755s-50.633,8.741-69.222,37.906
		c-18.588,29.164,13.457,49.588-5.131,78.752c-18.589,29.165-50.634,8.741-69.223,37.906c-18.589,29.166,13.456,49.591-5.134,78.757
		c-18.59,29.168-50.635,8.743-69.226,37.911c-18.59,29.167,13.455,49.592-5.136,78.759"/>
</g>
<g>
	<path fill="none" stroke="#000000" stroke-width="3" stroke-miterlimit="10" d="M1352.7,436.988
		c-18.587,29.163-50.632,8.738-69.219,37.901s13.457,49.586-5.13,78.749c-18.588,29.164-50.633,8.74-69.221,37.904
		c-18.587,29.163,13.458,49.586-5.129,78.749c-18.588,29.164-50.633,8.74-69.221,37.904c-18.587,29.163,13.457,49.587-5.13,78.75
		c-18.588,29.163-50.632,8.739-69.22,37.902c-18.588,29.164,13.457,49.588-5.131,78.751s-50.633,8.739-69.221,37.903
		c-18.587,29.164,13.457,49.587-5.13,78.751c-18.588,29.164-50.633,8.74-69.221,37.904c-18.586,29.161,13.458,49.585-5.128,78.747
		c-18.587,29.163-50.632,8.739-69.22,37.902c-18.586,29.162,13.458,49.586-5.128,78.748c-18.587,29.163-50.632,8.738-69.219,37.901
		s13.458,49.587-5.13,78.75c-18.588,29.165-50.633,8.74-69.222,37.905c-18.589,29.165,13.456,49.589-5.133,78.754
		c-18.588,29.164-50.633,8.74-69.221,37.904c-18.589,29.165,13.456,49.59-5.133,78.755s-50.634,8.741-69.223,37.906
		c-18.588,29.164,13.457,49.588-5.131,78.752c-18.589,29.166-50.634,8.742-69.223,37.907c-18.589,29.166,13.456,49.59-5.134,78.756
		c-18.59,29.168-50.635,8.743-69.226,37.911c-18.59,29.167,13.455,49.592-5.136,78.759"/>
</g>
<g>
	<path fill="none" stroke="#000000" stroke-width="3" stroke-miterlimit="10" d="M1391.073,480.605
		c-18.587,29.163-50.632,8.738-69.219,37.901s13.457,49.586-5.13,78.749c-18.588,29.164-50.633,8.74-69.221,37.904
		c-18.587,29.163,13.457,49.586-5.13,78.749c-18.588,29.164-50.633,8.74-69.221,37.904c-18.587,29.163,13.458,49.587-5.129,78.75
		c-18.588,29.164-50.633,8.739-69.221,37.903s13.458,49.587-5.13,78.751s-50.633,8.74-69.221,37.903
		c-18.588,29.163,13.457,49.587-5.13,78.75c-18.589,29.165-50.633,8.74-69.222,37.905c-18.586,29.161,13.458,49.585-5.128,78.747
		c-18.587,29.163-50.632,8.739-69.22,37.902c-18.586,29.161,13.458,49.586-5.129,78.747c-18.587,29.163-50.631,8.738-69.219,37.901
		s13.457,49.587-5.13,78.75c-18.589,29.165-50.633,8.741-69.222,37.906c-18.588,29.165,13.456,49.589-5.133,78.754
		c-18.588,29.164-50.633,8.74-69.221,37.904c-18.589,29.165,13.456,49.59-5.133,78.755s-50.633,8.741-69.222,37.906
		c-18.588,29.164,13.457,49.588-5.131,78.752c-18.589,29.165-50.634,8.741-69.223,37.906c-18.589,29.166,13.456,49.591-5.134,78.757
		c-18.59,29.168-50.635,8.743-69.226,37.911c-18.59,29.167,13.455,49.592-5.136,78.759"/>
</g>
<g>
	<path fill="none" stroke="#000000" stroke-width="3" stroke-miterlimit="10" d="M1429.445,524.224
		c-18.587,29.163-50.632,8.738-69.219,37.901s13.457,49.586-5.13,78.749c-18.588,29.164-50.633,8.74-69.221,37.904
		c-18.587,29.163,13.458,49.586-5.129,78.749c-18.588,29.164-50.633,8.74-69.221,37.904c-18.587,29.163,13.457,49.587-5.13,78.75
		c-18.588,29.164-50.632,8.739-69.22,37.903s13.457,49.587-5.131,78.751s-50.633,8.74-69.221,37.903
		c-18.587,29.163,13.458,49.587-5.13,78.75c-18.588,29.165-50.633,8.74-69.222,37.905c-18.586,29.161,13.458,49.585-5.128,78.747
		c-18.587,29.163-50.632,8.739-69.22,37.902c-18.586,29.162,13.458,49.586-5.128,78.748c-18.587,29.162-50.632,8.738-69.219,37.9
		c-18.587,29.163,13.458,49.587-5.13,78.75c-18.588,29.165-50.633,8.741-69.222,37.906c-18.588,29.165,13.456,49.589-5.133,78.754
		c-18.588,29.164-50.633,8.74-69.221,37.904c-18.589,29.165,13.456,49.59-5.133,78.755s-50.633,8.741-69.222,37.906
		c-18.588,29.164,13.457,49.588-5.131,78.752c-18.589,29.166-50.634,8.741-69.223,37.907c-18.589,29.166,13.456,49.59-5.134,78.756
		c-18.59,29.168-50.635,8.743-69.226,37.911c-18.59,29.167,13.455,49.592-5.136,78.759"/>
</g>
<g>
	<path fill="none" stroke="#000000" stroke-width="3" stroke-miterlimit="10" d="M1467.817,567.842
		c-18.587,29.163-50.632,8.738-69.219,37.901s13.457,49.586-5.13,78.749c-18.588,29.164-50.633,8.74-69.221,37.904
		c-18.587,29.163,13.457,49.586-5.13,78.749c-18.588,29.164-50.633,8.74-69.221,37.904c-18.587,29.163,13.458,49.587-5.129,78.75
		c-18.588,29.164-50.633,8.739-69.221,37.903s13.458,49.587-5.13,78.751s-50.633,8.74-69.221,37.903
		c-18.588,29.163,13.457,49.587-5.13,78.75c-18.589,29.164-50.633,8.74-69.222,37.904c-18.586,29.161,13.458,49.586-5.128,78.747
		c-18.588,29.163-50.632,8.739-69.22,37.902c-18.586,29.161,13.458,49.586-5.128,78.747c-18.587,29.163-50.632,8.738-69.219,37.901
		s13.458,49.587-5.13,78.75c-18.588,29.165-50.633,8.74-69.222,37.905c-18.589,29.165,13.457,49.59-5.132,78.755
		c-18.588,29.164-50.633,8.74-69.221,37.904c-18.589,29.165,13.456,49.59-5.133,78.755s-50.634,8.741-69.223,37.906
		c-18.588,29.164,13.457,49.588-5.131,78.752c-18.589,29.165-50.634,8.741-69.223,37.906c-18.589,29.166,13.456,49.59-5.134,78.756
		c-18.59,29.168-50.635,8.744-69.226,37.912c-18.59,29.167,13.455,49.592-5.136,78.759"/>
</g>
<g>
	<path fill="none" stroke="#000000" stroke-width="3" stroke-miterlimit="10" d="M1506.19,611.46
		c-18.587,29.163-50.632,8.738-69.219,37.901s13.457,49.586-5.13,78.749c-18.588,29.164-50.633,8.74-69.221,37.904
		c-18.587,29.163,13.457,49.586-5.13,78.749c-18.588,29.164-50.633,8.74-69.221,37.904c-18.587,29.163,13.458,49.587-5.129,78.75
		c-18.588,29.164-50.633,8.739-69.221,37.903s13.457,49.587-5.131,78.751s-50.632,8.74-69.22,37.903s13.457,49.587-5.131,78.75
		c-18.588,29.164-50.633,8.74-69.221,37.904c-18.586,29.161,13.458,49.586-5.128,78.747c-18.588,29.163-50.632,8.739-69.22,37.902
		c-18.587,29.162,13.458,49.586-5.129,78.748c-18.587,29.162-50.632,8.738-69.219,37.9c-18.587,29.163,13.458,49.587-5.13,78.75
		c-18.588,29.165-50.633,8.741-69.222,37.906c-18.588,29.165,13.456,49.589-5.133,78.754c-18.588,29.164-50.633,8.74-69.221,37.904
		c-18.589,29.165,13.456,49.59-5.133,78.755s-50.633,8.741-69.222,37.906c-18.588,29.164,13.457,49.588-5.131,78.752
		c-18.589,29.166-50.634,8.741-69.223,37.907c-18.589,29.166,13.456,49.59-5.134,78.756c-18.59,29.168-50.635,8.743-69.226,37.911
		c-18.59,29.167,13.455,49.592-5.136,78.759"/>
</g>
<g>
	<path fill="none" stroke="#000000" stroke-width="3" stroke-miterlimit="10" d="M1544.562,655.078
		c-18.587,29.163-50.632,8.738-69.219,37.901s13.457,49.586-5.13,78.749c-18.588,29.164-50.633,8.74-69.221,37.904
		c-18.587,29.163,13.457,49.586-5.13,78.749c-18.588,29.164-50.633,8.74-69.221,37.904c-18.587,29.163,13.457,49.587-5.13,78.75
		c-18.588,29.164-50.632,8.739-69.22,37.903s13.458,49.587-5.13,78.751s-50.633,8.74-69.221,37.903
		c-18.588,29.163,13.457,49.587-5.131,78.75c-18.588,29.164-50.633,8.74-69.221,37.904c-18.586,29.161,13.458,49.586-5.128,78.747
		c-18.588,29.163-50.632,8.739-69.22,37.902c-18.587,29.162,13.458,49.586-5.129,78.748s-50.632,8.738-69.219,37.901
		c-18.587,29.163,13.458,49.587-5.13,78.75c-18.588,29.165-50.633,8.74-69.222,37.905s13.456,49.589-5.133,78.754
		c-18.588,29.164-50.633,8.74-69.221,37.904c-18.589,29.165,13.456,49.59-5.133,78.755s-50.633,8.741-69.222,37.906
		c-18.588,29.164,13.457,49.588-5.131,78.752c-18.589,29.166-50.634,8.741-69.223,37.907c-18.589,29.166,13.456,49.59-5.134,78.756
		c-18.59,29.168-50.635,8.743-69.226,37.911c-18.59,29.167,13.455,49.592-5.136,78.759"/>
</g>
<g>
	<path fill="none" stroke="#000000" stroke-width="3" stroke-miterlimit="10" d="M1582.934,698.696
		c-18.587,29.163-50.632,8.738-69.219,37.901s13.458,49.587-5.129,78.749c-18.588,29.164-50.634,8.74-69.222,37.904
		c-18.587,29.163,13.458,49.587-5.129,78.75c-18.588,29.164-50.633,8.74-69.221,37.903c-18.587,29.163,13.457,49.587-5.13,78.75
		c-18.588,29.164-50.632,8.739-69.22,37.903s13.457,49.587-5.131,78.751s-50.633,8.74-69.221,37.903s13.457,49.587-5.13,78.75
		c-18.589,29.165-50.633,8.74-69.222,37.905c-18.586,29.161,13.458,49.585-5.128,78.746c-18.588,29.163-50.633,8.739-69.22,37.902
		c-18.587,29.162,13.459,49.586-5.128,78.748c-18.587,29.163-50.632,8.738-69.22,37.901c-18.587,29.163,13.457,49.587-5.13,78.75
		c-18.588,29.165-50.633,8.74-69.222,37.905s13.456,49.589-5.133,78.754c-18.588,29.164-50.633,8.74-69.221,37.904
		c-18.589,29.165,13.456,49.59-5.133,78.755s-50.634,8.741-69.223,37.906c-18.588,29.164,13.457,49.588-5.131,78.752
		c-18.589,29.166-50.634,8.741-69.223,37.907c-18.589,29.166,13.456,49.59-5.134,78.756c-18.59,29.168-50.635,8.743-69.226,37.911
		c-18.59,29.167,13.455,49.592-5.136,78.759"/>
</g>
<g>
	<path fill="none" stroke="#000000" stroke-width="3" stroke-miterlimit="10" d="M1621.307,742.314
		c-18.587,29.163-50.632,8.738-69.219,37.901s13.457,49.586-5.13,78.749c-18.588,29.164-50.633,8.74-69.221,37.904
		c-18.587,29.163,13.457,49.586-5.13,78.749c-18.588,29.164-50.633,8.74-69.221,37.904c-18.587,29.163,13.457,49.587-5.13,78.75
		c-18.588,29.164-50.632,8.739-69.22,37.903s13.457,49.587-5.131,78.751s-50.633,8.739-69.221,37.903
		c-18.588,29.163,13.458,49.588-5.13,78.751c-18.588,29.164-50.634,8.74-69.222,37.904c-18.586,29.161,13.459,49.586-5.127,78.747
		c-18.588,29.163-50.633,8.739-69.221,37.902c-18.587,29.161,13.458,49.586-5.128,78.747c-18.588,29.163-50.632,8.738-69.22,37.901
		c-18.587,29.163,13.457,49.587-5.13,78.75c-18.589,29.165-50.633,8.741-69.222,37.906s13.456,49.589-5.132,78.754
		c-18.588,29.164-50.633,8.74-69.221,37.904c-18.589,29.165,13.456,49.59-5.133,78.755s-50.634,8.741-69.223,37.906
		c-18.588,29.164,13.457,49.588-5.131,78.752c-18.589,29.165-50.634,8.741-69.223,37.906c-18.589,29.166,13.456,49.591-5.134,78.757
		c-18.59,29.168-50.635,8.743-69.226,37.911c-18.59,29.167,13.455,49.592-5.136,78.759"/>
</g>
<g>
	<path fill="none" stroke="#000000" stroke-width="3" stroke-miterlimit="10" d="M1659.679,785.933
		c-18.587,29.163-50.632,8.738-69.219,37.901s13.457,49.586-5.13,78.749c-18.588,29.164-50.633,8.74-69.221,37.904
		c-18.587,29.163,13.458,49.586-5.129,78.749c-18.588,29.164-50.633,8.74-69.221,37.904c-18.587,29.163,13.457,49.587-5.13,78.75
		c-18.588,29.164-50.632,8.739-69.22,37.903s13.457,49.587-5.131,78.751s-50.633,8.739-69.221,37.903
		c-18.587,29.163,13.457,49.587-5.13,78.75c-18.589,29.165-50.633,8.74-69.222,37.905c-18.586,29.161,13.458,49.585-5.128,78.746
		c-18.588,29.163-50.632,8.739-69.22,37.902c-18.587,29.162,13.458,49.586-5.129,78.748c-18.587,29.163-50.632,8.739-69.219,37.901
		c-18.587,29.163,13.457,49.587-5.13,78.75c-18.589,29.165-50.633,8.74-69.222,37.905s13.456,49.589-5.133,78.754
		c-18.588,29.164-50.633,8.74-69.222,37.904c-18.589,29.165,13.456,49.59-5.133,78.755s-50.633,8.741-69.222,37.906
		c-18.588,29.164,13.457,49.588-5.131,78.752c-18.589,29.165-50.634,8.741-69.223,37.906c-18.589,29.166,13.456,49.591-5.134,78.757
		c-18.59,29.168-50.635,8.743-69.226,37.911c-18.59,29.167,13.455,49.592-5.136,78.759"/>
</g>
<g>
	<path fill="none" stroke="#000000" stroke-width="3" stroke-miterlimit="10" d="M1698.051,829.551
		c-18.587,29.163-50.632,8.738-69.219,37.901s13.457,49.586-5.13,78.749c-18.588,29.164-50.633,8.74-69.221,37.904
		c-18.587,29.163,13.457,49.586-5.13,78.749c-18.588,29.164-50.633,8.74-69.221,37.904c-18.587,29.163,13.458,49.587-5.129,78.75
		c-18.588,29.164-50.633,8.739-69.221,37.903c-18.588,29.163,13.457,49.587-5.131,78.751c-18.588,29.163-50.632,8.74-69.22,37.903
		s13.457,49.587-5.131,78.75c-18.588,29.164-50.633,8.74-69.221,37.904c-18.586,29.161,13.458,49.586-5.128,78.747
		c-18.588,29.163-50.632,8.739-69.22,37.902c-18.587,29.162,13.458,49.586-5.129,78.748s-50.632,8.738-69.219,37.901
		s13.457,49.587-5.13,78.749c-18.589,29.165-50.633,8.741-69.222,37.906s13.456,49.589-5.133,78.754
		c-18.588,29.164-50.633,8.74-69.221,37.904c-18.589,29.165,13.456,49.59-5.133,78.755s-50.633,8.741-69.222,37.906
		c-18.588,29.164,13.457,49.588-5.131,78.752c-18.589,29.165-50.634,8.741-69.223,37.906c-18.589,29.166,13.455,49.591-5.134,78.757
		c-18.59,29.168-50.635,8.743-69.225,37.911c-18.59,29.167,13.455,49.592-5.136,78.759"/>
</g>
<g>
	<path fill="none" stroke="#000000" stroke-width="3" stroke-miterlimit="10" d="M1736.424,873.169
		c-18.587,29.163-50.632,8.738-69.219,37.901s13.457,49.586-5.13,78.749c-18.588,29.164-50.633,8.74-69.221,37.904
		c-18.587,29.163,13.457,49.586-5.13,78.749c-18.588,29.164-50.633,8.74-69.221,37.904c-18.587,29.163,13.457,49.587-5.13,78.75
		c-18.588,29.163-50.632,8.739-69.22,37.902c-18.588,29.164,13.457,49.588-5.131,78.752c-18.588,29.163-50.632,8.739-69.22,37.902
		s13.457,49.588-5.131,78.751c-18.588,29.164-50.633,8.74-69.221,37.904c-18.586,29.161,13.458,49.586-5.128,78.747
		c-18.588,29.163-50.632,8.739-69.22,37.902c-18.587,29.161,13.458,49.585-5.129,78.747s-50.632,8.738-69.219,37.901
		s13.457,49.587-5.13,78.75c-18.589,29.165-50.634,8.741-69.223,37.906s13.457,49.589-5.132,78.754
		c-18.588,29.164-50.633,8.74-69.222,37.904c-18.589,29.165,13.456,49.59-5.133,78.755s-50.634,8.741-69.223,37.906
		c-18.588,29.164,13.457,49.588-5.131,78.752c-18.589,29.166-50.633,8.742-69.223,37.907c-18.589,29.166,13.455,49.59-5.134,78.756
		c-18.59,29.167-50.635,8.743-69.225,37.911c-18.59,29.167,13.455,49.592-5.136,78.759"/>
</g>
<g>
	<path fill="none" stroke="#000000" stroke-width="3" stroke-miterlimit="10" d="M1774.796,916.787
		c-18.587,29.163-50.632,8.738-69.219,37.901s13.457,49.586-5.13,78.749c-18.588,29.164-50.633,8.74-69.221,37.904
		c-18.587,29.163,13.458,49.586-5.129,78.749c-18.588,29.164-50.633,8.74-69.221,37.904c-18.587,29.163,13.457,49.586-5.13,78.75
		c-18.588,29.163-50.632,8.74-69.22,37.903s13.457,49.587-5.131,78.75c-18.588,29.164-50.633,8.739-69.221,37.903
		c-18.588,29.163,13.457,49.588-5.131,78.751c-18.588,29.164-50.633,8.74-69.221,37.904c-18.586,29.161,13.458,49.586-5.128,78.747
		c-18.588,29.163-50.632,8.739-69.22,37.902c-18.587,29.161,13.458,49.586-5.129,78.747c-18.587,29.163-50.632,8.739-69.219,37.901
		c-18.588,29.163,13.457,49.587-5.131,78.75c-18.589,29.165-50.633,8.74-69.222,37.905s13.456,49.589-5.133,78.755
		c-18.588,29.164-50.633,8.74-69.221,37.904c-18.589,29.166,13.456,49.59-5.133,78.755s-50.634,8.741-69.223,37.906
		c-18.588,29.164,13.457,49.588-5.131,78.752c-18.589,29.165-50.634,8.741-69.223,37.906c-18.589,29.166,13.456,49.591-5.134,78.757
		c-18.59,29.168-50.635,8.743-69.226,37.911c-18.59,29.167,13.455,49.592-5.136,78.759"/>
</g>
<g>
	<path fill="none" stroke="#000000" stroke-width="3" stroke-miterlimit="10" d="M1813.168,960.405
		c-18.587,29.163-50.632,8.738-69.219,37.901s13.457,49.586-5.13,78.749c-18.588,29.164-50.633,8.74-69.221,37.904
		c-18.587,29.163,13.457,49.587-5.13,78.75c-18.588,29.164-50.633,8.74-69.221,37.904c-18.587,29.162,13.458,49.587-5.129,78.749
		c-18.588,29.164-50.633,8.739-69.221,37.903c-18.588,29.163,13.457,49.588-5.131,78.751s-50.632,8.739-69.22,37.902
		s13.458,49.588-5.13,78.751c-18.588,29.164-50.634,8.74-69.222,37.904c-18.586,29.161,13.458,49.586-5.128,78.747
		c-18.588,29.163-50.632,8.739-69.22,37.902c-18.586,29.161,13.458,49.586-5.128,78.747c-18.588,29.163-50.632,8.738-69.22,37.901
		c-18.587,29.163,13.457,49.587-5.13,78.75c-18.589,29.165-50.633,8.741-69.222,37.906s13.456,49.589-5.133,78.754
		c-18.589,29.164-50.633,8.74-69.222,37.904c-18.589,29.165,13.456,49.589-5.133,78.755c-18.589,29.165-50.633,8.741-69.222,37.906
		c-18.588,29.164,13.457,49.588-5.132,78.752c-18.588,29.165-50.633,8.741-69.222,37.906c-18.589,29.166,13.455,49.591-5.134,78.757
		c-18.59,29.168-50.635,8.743-69.225,37.911c-18.59,29.167,13.455,49.592-5.136,78.759"/>
</g>
<g>
	<path fill="none" stroke="#000000" stroke-width="3" stroke-miterlimit="10" d="M1851.541,1004.023
		c-18.587,29.163-50.632,8.738-69.219,37.901s13.457,49.586-5.13,78.749c-18.588,29.164-50.633,8.74-69.221,37.904
		c-18.587,29.163,13.458,49.587-5.129,78.749c-18.588,29.164-50.633,8.74-69.222,37.904c-18.587,29.162,13.457,49.587-5.13,78.749
		c-18.588,29.163-50.632,8.739-69.22,37.902s13.457,49.588-5.13,78.751c-18.588,29.164-50.633,8.739-69.221,37.903
		c-18.588,29.163,13.457,49.588-5.131,78.751c-18.588,29.164-50.633,8.74-69.221,37.904c-18.586,29.161,13.458,49.586-5.128,78.747
		c-18.588,29.163-50.632,8.739-69.22,37.902c-18.587,29.161,13.458,49.586-5.129,78.747c-18.587,29.163-50.632,8.739-69.219,37.901
		c-18.587,29.164,13.458,49.588-5.13,78.751c-18.588,29.165-50.633,8.74-69.222,37.905s13.456,49.589-5.133,78.754
		c-18.589,29.164-50.634,8.74-69.222,37.904c-18.589,29.165,13.456,49.59-5.133,78.755s-50.634,8.741-69.223,37.906
		c-18.588,29.164,13.457,49.588-5.131,78.752c-18.589,29.165-50.633,8.741-69.222,37.907s13.455,49.59-5.134,78.756
		c-18.59,29.168-50.635,8.743-69.225,37.911c-18.59,29.167,13.455,49.592-5.136,78.759"/>
</g>
<g>
	<path fill="none" stroke="#000000" stroke-width="3" stroke-miterlimit="10" d="M1889.913,1047.642
		c-18.587,29.163-50.632,8.738-69.219,37.901s13.457,49.586-5.13,78.749c-18.588,29.164-50.633,8.74-69.221,37.904
		c-18.587,29.162,13.458,49.587-5.129,78.749c-18.588,29.164-50.633,8.739-69.221,37.903c-18.588,29.163,13.457,49.587-5.13,78.75
		c-18.588,29.163-50.632,8.739-69.22,37.902c-18.588,29.164,13.457,49.588-5.131,78.752c-18.588,29.163-50.632,8.739-69.22,37.902
		s13.457,49.588-5.131,78.751c-18.588,29.164-50.633,8.74-69.221,37.904c-18.586,29.161,13.458,49.586-5.128,78.747
		c-18.588,29.163-50.632,8.739-69.22,37.902c-18.587,29.162,13.458,49.586-5.129,78.748c-18.587,29.163-50.632,8.739-69.219,37.901
		c-18.588,29.163,13.457,49.587-5.131,78.75c-18.589,29.165-50.634,8.74-69.222,37.905s13.457,49.589-5.132,78.754
		c-18.588,29.164-50.634,8.74-69.222,37.904c-18.589,29.165,13.456,49.59-5.133,78.755s-50.634,8.741-69.223,37.906
		c-18.588,29.164,13.457,49.588-5.131,78.752c-18.589,29.165-50.634,8.741-69.223,37.906c-18.59,29.166,13.455,49.591-5.134,78.757
		c-18.59,29.168-50.635,8.743-69.226,37.911c-18.59,29.167,13.455,49.592-5.136,78.759"/>
</g>
<g>
	<path fill="none" stroke="#000000" stroke-width="3" stroke-miterlimit="10" d="M1928.286,1091.26
		c-18.587,29.163-50.632,8.738-69.219,37.901s13.457,49.586-5.13,78.749c-18.588,29.164-50.633,8.74-69.221,37.904
		c-18.587,29.162,13.458,49.587-5.129,78.749c-18.588,29.164-50.633,8.74-69.221,37.904c-18.587,29.163,13.457,49.587-5.13,78.749
		c-18.588,29.164-50.633,8.739-69.221,37.903c-18.588,29.163,13.457,49.587-5.131,78.751c-18.588,29.163-50.632,8.74-69.22,37.903
		s13.457,49.587-5.131,78.75c-18.589,29.164-50.634,8.74-69.222,37.904c-18.586,29.161,13.459,49.586-5.127,78.747
		c-18.588,29.163-50.633,8.739-69.221,37.902c-18.587,29.162,13.459,49.586-5.128,78.748c-18.587,29.163-50.632,8.738-69.22,37.901
		c-18.587,29.163,13.457,49.587-5.13,78.75c-18.589,29.165-50.633,8.74-69.222,37.905s13.456,49.589-5.133,78.754
		c-18.588,29.164-50.633,8.74-69.221,37.904c-18.589,29.166,13.456,49.59-5.133,78.755s-50.634,8.741-69.223,37.906
		c-18.588,29.164,13.457,49.588-5.131,78.752c-18.589,29.165-50.634,8.741-69.223,37.906c-18.59,29.166,13.456,49.591-5.134,78.757
		c-18.59,29.168-50.635,8.743-69.226,37.911c-18.59,29.167,13.455,49.592-5.136,78.759"/>
</g>
<g>
	<path fill="none" stroke="#000000" stroke-width="3" stroke-miterlimit="10" d="M1966.658,1134.878
		c-18.587,29.163-50.632,8.738-69.219,37.901s13.457,49.587-5.13,78.749c-18.588,29.164-50.633,8.74-69.221,37.904
		c-18.587,29.162,13.458,49.587-5.129,78.749c-18.588,29.164-50.632,8.74-69.221,37.904c-18.587,29.162,13.456,49.586-5.131,78.749
		c-18.588,29.163-50.632,8.74-69.22,37.903c-18.588,29.164,13.457,49.588-5.131,78.751s-50.633,8.739-69.22,37.902
		s13.458,49.588-5.13,78.751c-18.588,29.165-50.633,8.74-69.222,37.905c-18.586,29.161,13.458,49.585-5.128,78.746
		c-18.588,29.163-50.632,8.739-69.22,37.902c-18.587,29.162,13.458,49.586-5.129,78.748c-18.587,29.163-50.632,8.739-69.219,37.901
		c-18.587,29.163,13.457,49.587-5.13,78.75c-18.589,29.165-50.633,8.74-69.222,37.905s13.456,49.589-5.133,78.754
		c-18.589,29.164-50.634,8.74-69.222,37.904c-18.589,29.165,13.456,49.59-5.133,78.755s-50.634,8.741-69.223,37.906
		c-18.588,29.164,13.457,49.588-5.131,78.752c-18.589,29.166-50.634,8.741-69.223,37.907s13.455,49.59-5.134,78.756
		c-18.591,29.168-50.635,8.743-69.226,37.911c-18.59,29.167,13.454,49.592-5.136,78.759"/>
</g>
</svg>
